<svg xmlns="http://www.w3.org/2000/svg" viewBox="0 0 64 64" width="64" height="64">
  <defs>
    <linearGradient id="grad9" x1="0" y1="0" x2="1" y2="1">
      <stop offset="0%" stop-color="#BE185D"/>
      <stop offset="100%" stop-color="#6B21A8"/>
    </linearGradient>
  </defs>
  <rect width="64" height="64" rx="14" ry="14" fill="url(#grad9)"/>
  <path d="M26.99 10.71C31.10 10.71 35.72 9.83 38.90 8.22L37.23 3.43C33.96 5.04 30.26 5.72 26.99 5.72C15.44 5.72 7.85-2.13 7.85-13.21C7.85-24.08 15.60-31.98 27.20-31.98C38.74-31.98 46.54-24.70 46.54-14.14C46.54-8.11 45.08-5.36 42.69-5.36C41.29-5.36 40.20-6.19 40.20-8.68L40.20-25.53L33.12-25.53L33.12-22.52C31.25-24.70 28.50-25.90 25.12-25.90C18.36-25.90 13.10-20.59 13.10-12.79C13.10-4.94 18.41 0.36 25.12 0.36C29.22 0.36 32.19-1.25 34.01-4.16C35.10-1.20 37.65 0.36 41.13 0.36C47.53 0.36 51.79-4.94 51.79-14.25C51.79-27.30 41.81-36.92 27.20-36.92C12.06-36.92 2.03-26.78 2.03-13.21C2.03 0.52 11.96 10.71 26.99 10.71ZM26.73-5.62C22.93-5.62 20.28-8.32 20.28-12.79C20.28-17.21 22.93-19.86 26.73-19.86C30.47-19.86 33.23-17.32 33.23-12.79C33.23-8.22 30.47-5.62 26.73-5.62Z" transform="translate(5.09, 45.10)" fill="white"/>
</svg>
